<svg width="32" height="32" viewBox="0 0 32 32" fill="none" xmlns="http://www.w3.org/2000/svg">
<path d="M13.72 5.1467L2.42666 24C2.19382 24.4033 2.07062 24.8604 2.06932 25.3261C2.06801 25.7917 2.18865 26.2495 2.41923 26.6541C2.64981 27.0586 2.9823 27.3957 3.38361 27.6318C3.78492 27.868 4.24106 27.9949 4.70666 28H27.2933C27.7589 27.9949 28.2151 27.868 28.6164 27.6318C29.0177 27.3957 29.3502 27.0586 29.5808 26.6541C29.8113 26.2495 29.932 25.7917 29.9307 25.3261C29.9294 24.8604 29.8062 24.4033 29.5733 24L18.28 5.1467C18.0423 4.75484 17.7076 4.43085 17.3083 4.20601C16.9089 3.98116 16.4583 3.86304 16 3.86304C15.5417 3.86304 15.0911 3.98116 14.6917 4.20601C14.2924 4.43085 13.9577 4.75484 13.72 5.1467Z" stroke="#CBD5E1" stroke-width="3" stroke-linecap="round" stroke-linejoin="round"/>
<path d="M16 12V17.3333" stroke="#CBD5E1" stroke-width="3" stroke-linecap="round" stroke-linejoin="round"/>
<path d="M16 22.6666H16.0133" stroke="#CBD5E1" stroke-width="3" stroke-linecap="round" stroke-linejoin="round"/>
</svg>
