<svg width="12" height="12" viewBox="0 0 12 12" fill="none" xmlns="http://www.w3.org/2000/svg">
<path d="M6 0C2.68661 0 0 2.75625 0 6.15268C0 8.87143 1.71964 11.175 4.10357 11.9893C4.13701 11.9965 4.17114 12.0001 4.20536 12C4.42768 12 4.51339 11.8366 4.51339 11.6946C4.51339 11.5473 4.50803 11.1616 4.50536 10.6473C4.30688 10.6938 4.10385 10.7181 3.9 10.7196C2.74553 10.7196 2.48303 9.82232 2.48303 9.82232C2.20982 9.1125 1.81607 8.92232 1.81607 8.92232C1.29375 8.55535 1.81339 8.54464 1.85357 8.54464H1.85625C2.45893 8.59821 2.775 9.18214 2.775 9.18214C3.075 9.70714 3.47678 9.85446 3.83571 9.85446C4.07304 9.84971 4.3067 9.79495 4.52143 9.69375C4.575 9.29732 4.73036 9.02678 4.90178 8.87143C3.57053 8.71607 2.16964 8.18839 2.16964 5.83125C2.16964 5.15893 2.40268 4.60982 2.78571 4.18125C2.72411 4.02589 2.51786 3.39911 2.84464 2.55268C2.88848 2.54219 2.93353 2.53768 2.97857 2.53928C3.19553 2.53928 3.68571 2.62232 4.49464 3.18482C5.47755 2.90981 6.51709 2.90981 7.5 3.18482C8.30893 2.62232 8.7991 2.53928 9.01607 2.53928C9.06111 2.53768 9.10616 2.54219 9.15 2.55268C9.47678 3.39911 9.27053 4.02589 9.20893 4.18125C9.59196 4.6125 9.825 5.1616 9.825 5.83125C9.825 8.19375 8.42143 8.71339 7.08482 8.86607C7.2991 9.05625 7.49196 9.43125 7.49196 10.0045C7.49196 10.8268 7.48393 11.4911 7.48393 11.692C7.48393 11.8366 7.56696 12 7.78928 12C7.82527 12.0002 7.86118 11.9966 7.89643 11.9893C10.283 11.175 12 8.86875 12 6.15268C12 2.75625 9.31339 0 6 0Z" fill="#CBD5E1"/>
</svg>
